<?xml version="1.0" encoding="utf-8"?>
<!-- Generator: Adobe Illustrator 22.1.0, SVG Export Plug-In . SVG Version: 6.00 Build 0)  -->
<svg version="1.1" id="图层_1" xmlns="http://www.w3.org/2000/svg" xmlns:xlink="http://www.w3.org/1999/xlink" x="0px" y="0px"
	 viewBox="0 0 12 11" style="enable-background:new 0 0 12 11;" xml:space="preserve">
<style type="text/css">
	.st0{fill:#999999;}
</style>
<title>分组</title>
<desc>Created with Sketch.</desc>
<g>
	<path class="st0" d="M8.3,1.6V0.3C8.3,0.2,8.1,0,7.9,0C7.7,0,7.6,0.2,7.6,0.3v1.2H4.1V0.3C4.1,0.2,4,0,3.8,0C3.6,0,3.4,0.2,3.4,0.3
		v1.2H0V11h12V1.6H8.3z M11.3,10.3H0.7v-8h2.7v0.9c0,0.2,0.2,0.3,0.4,0.3c0.2,0,0.3-0.2,0.3-0.3V2.3h3.4v0.9c0,0.2,0.2,0.3,0.4,0.3
		c0.2,0,0.3-0.2,0.3-0.3V2.3h3V10.3z"/>
	<path class="st0" d="M3.7,5.4H2.5c-0.2,0-0.3,0.2-0.3,0.4s0.2,0.3,0.3,0.3h1.1C3.8,6.1,4,6,4,5.8S3.8,5.4,3.7,5.4z"/>
	<path class="st0" d="M7.4,5.8c0,0.2,0.2,0.3,0.3,0.3H9c0.2,0,0.3-0.2,0.3-0.3S9.2,5.4,9,5.4H7.8C7.6,5.4,7.4,5.6,7.4,5.8z"/>
	<path class="st0" d="M3.7,7.8H2.5C2.3,7.8,2.2,8,2.2,8.2s0.2,0.3,0.3,0.3h1.1C3.8,8.5,4,8.4,4,8.2S3.8,7.8,3.7,7.8z"/>
	<path class="st0" d="M9,7.8H7.8C7.6,7.8,7.4,8,7.4,8.2s0.2,0.3,0.3,0.3H9c0.2,0,0.3-0.2,0.3-0.3S9.2,7.8,9,7.8z"/>
</g>
</svg>
