<?xml version="1.0" encoding="UTF-8"?>
<svg width="17px" height="18px" viewBox="0 0 17 18" version="1.1" xmlns="http://www.w3.org/2000/svg" xmlns:xlink="http://www.w3.org/1999/xlink">
    <!-- Generator: Sketch 52.6 (67491) - http://www.bohemiancoding.com/sketch -->
    <title>分组 4</title>
    <desc>Created with Sketch.</desc>
    <g id="微信公众号" stroke="none" stroke-width="1" fill="none" fill-rule="evenodd">
        <g id="集团动态首页-copy-2" transform="translate(-326.000000, -603.000000)" fill="#FFFFFF" fill-rule="nonzero">
            <g id="分组-3" transform="translate(311.000000, 589.000000)">
                <g id="分组-4" transform="translate(23.500000, 23.000000) rotate(-315.000000) translate(-23.500000, -23.000000) translate(12.000000, 11.000000)">
                    <path d="M1.1577665,11 C0.518321275,11.0000852 0,11.4549463 0,12.0160164 C0,12.5770865 0.518321275,13.0319475 1.1577665,13.0320327 L21.8422335,13.0320327 C22.4816787,13.0319475 23,12.5770865 23,12.0160164 C23,11.4549463 22.4816787,11.0000852 21.8422335,11 L1.1577665,11 Z" id="路径" transform="translate(11.500000, 12.016016) rotate(-270.000000) translate(-11.500000, -12.016016) "></path>
                    <path d="M1.15499046,11 C0.517106843,11 0,11.454886 0,12.0160164 C0,12.5771467 0.517106843,13.0320328 1.15499046,13.0320328 L21.8450095,13.0320328 C22.4828932,13.0320328 23,12.5771467 23,12.0160164 C23,11.454886 22.4828932,11 21.8450095,11 L1.15499046,11 Z" id="路径"></path>
                </g>
            </g>
        </g>
    </g>
</svg>