<?xml version="1.0" encoding="utf-8"?>
<!-- Generator: Adobe Illustrator 22.1.0, SVG Export Plug-In . SVG Version: 6.00 Build 0)  -->
<svg version="1.1" id="图层_1" xmlns="http://www.w3.org/2000/svg" xmlns:xlink="http://www.w3.org/1999/xlink" x="0px" y="0px"
	 viewBox="0 0 18 18" style="enable-background:new 0 0 18 18;" xml:space="preserve">
<style type="text/css">
	.st0{fill:#999999;}
</style>
<title>Stroke 13 Copy 8</title>
<desc>Created with Sketch.</desc>
<path class="st0" d="M4.3,17.5c-0.2,0-0.4-0.1-0.5-0.2c-0.3-0.2-0.4-0.6-0.4-1.1l0.7-4c0.1-0.4-0.1-1.1-0.4-1.4L0.9,8
	C0.5,7.7,0.4,7.3,0.5,6.9C0.7,6.6,1,6.3,1.5,6.3l3.8-0.6c0.4-0.1,0.9-0.5,1.1-0.8l1.7-3.7C8.4,0.6,8.8,0.5,9,0.5h0
	c0.2,0,0.6,0.1,0.9,0.7l1.7,3.7c0.2,0.4,0.7,0.8,1.1,0.8l3.8,0.6c0.5,0.1,0.8,0.3,0.9,0.7s0,0.8-0.3,1.1l-2.8,2.8
	c-0.3,0.3-0.5,1-0.4,1.4l0.7,4c0.1,0.5-0.1,0.9-0.4,1.1c-0.3,0.2-0.7,0.2-1.1,0l-3.4-1.9c-0.4-0.2-1-0.2-1.4,0l-3.4,1.9
	C4.7,17.4,4.5,17.5,4.3,17.5z M9,14.3c0.4,0,0.8,0.1,1.2,0.3l3.4,1.9c0,0,0,0,0,0c0,0,0,0,0,0l-0.7-4c-0.1-0.7,0.2-1.7,0.7-2.2
	l2.8-2.8c0,0,0,0,0-0.1c0,0,0,0-0.1,0l-3.8-0.6c-0.7-0.1-1.6-0.7-1.9-1.4L9,1.6L7.3,5.3C7,5.9,6.1,6.6,5.4,6.7L1.6,7.2
	c0,0-0.1,0-0.1,0c0,0,0,0,0.1,0.1l2.8,2.8c0.5,0.5,0.8,1.5,0.7,2.2l-0.7,4c0,0,0,0,0,0c0,0,0,0,0,0l3.4-1.9
	C8.2,14.4,8.6,14.3,9,14.3z M8.5,1.4L8.5,1.4L8.5,1.4z"/>
</svg>
