<?xml version="1.0" encoding="utf-8"?>
<!-- Generator: Adobe Illustrator 22.1.0, SVG Export Plug-In . SVG Version: 6.00 Build 0)  -->
<svg version="1.1" id="图层_1" xmlns="http://www.w3.org/2000/svg" xmlns:xlink="http://www.w3.org/1999/xlink" x="0px" y="0px"
	 viewBox="0 0 16 15.7" style="enable-background:new 0 0 16 15.7;" xml:space="preserve">
<style type="text/css">
	.st0{fill:#999999;}
</style>
<title>Stroke 1</title>
<desc>Created with Sketch.</desc>
<path class="st0" d="M12.5,15.5c-0.1,0-0.2,0-0.2-0.1l-4.1-2.2l-4.1,2.2c-0.2,0.1-0.4,0.1-0.5,0c-0.2-0.1-0.2-0.3-0.2-0.5L4,10.1
	L0.8,6.7C0.7,6.5,0.6,6.3,0.7,6.2s0.2-0.3,0.4-0.3l2.2-0.3c0.3,0,0.5,0.2,0.6,0.4c0,0.3-0.2,0.5-0.4,0.6L2.2,6.7l2.7,2.9
	C5,9.7,5,9.8,5,10l-0.5,4.1L8,12.3c0.1-0.1,0.3-0.1,0.5,0l3.5,1.8L11.3,10c0-0.1,0-0.3,0.1-0.4l2.7-2.9l-3.7-0.5
	c-0.2,0-0.3-0.1-0.4-0.3L8.2,2.1L6.3,5.9C6.1,6.1,5.8,6.2,5.6,6.1C5.4,6,5.3,5.7,5.4,5.4l2.3-4.7C7.8,0.6,8,0.5,8.2,0.5l0,0
	c0.2,0,0.4,0.1,0.4,0.3l2.2,4.5l4.4,0.6c0.2,0,0.3,0.2,0.4,0.3c0.1,0.2,0,0.4-0.1,0.5l-3.2,3.4l0.6,4.8c0,0.2-0.1,0.4-0.2,0.5
	C12.7,15.4,12.6,15.5,12.5,15.5z"/>
</svg>
