<?xml version="1.0" encoding="UTF-8"?>
<svg width="20px" height="18px" viewBox="0 0 20 18" version="1.1" xmlns="http://www.w3.org/2000/svg" xmlns:xlink="http://www.w3.org/1999/xlink">
    <!-- Generator: Sketch 52.6 (67491) - http://www.bohemiancoding.com/sketch -->
    <title>更多</title>
    <desc>Created with Sketch.</desc>
    <g id="微信公众号" stroke="none" stroke-width="1" fill="none" fill-rule="evenodd">
        <g id="集团动态首页-copy" transform="translate(-324.000000, -603.000000)">
            <g id="分组-3" transform="translate(311.000000, 589.000000)">
                <g id="更多" transform="translate(11.000000, 11.000000)">
                    <rect id="矩形" fill="#000000" opacity="0" x="0" y="0" width="24" height="24"></rect>
                    <path d="M8.51320116,6.45593735 L20.1809638,6.45593735 C20.7420942,6.45593735 21.1969802,6.00105133 21.1969802,5.43992098 C21.1969802,4.87879063 20.7420942,4.4239046 20.1809638,4.4239046 L8.51320116,4.4239046 C7.95207082,4.42390462 7.49718481,4.87879064 7.49718481,5.43992098 C7.49718481,6.00105131 7.95207082,6.45593733 8.51320116,6.45593735 Z M20.1809638,11.0608622 L8.51320116,11.0608622 C7.95213108,11.0609474 7.4973391,11.5158085 7.4973391,12.0768786 C7.4973391,12.6379487 7.95213108,13.0928097 8.51320116,13.0928949 L20.1809638,13.0928949 C20.7420339,13.0928097 21.1968259,12.6379487 21.1968259,12.0768786 C21.1968259,11.5158085 20.7420339,11.0609474 20.1809638,11.0608622 Z M20.1809638,17.6976505 L8.51320116,17.6976505 C7.95207081,17.6976505 7.49718478,18.1525365 7.49718478,18.7136668 C7.49718478,19.2747972 7.95207081,19.7296832 8.51320116,19.7296832 L20.1809638,19.7296832 C20.7420942,19.7296832 21.1969802,19.2747972 21.1969802,18.7136668 C21.1969802,18.1525365 20.7420942,17.6976505 20.1809638,17.6976505 Z" id="形状" fill="#FFFFFF" fill-rule="nonzero"></path>
                    <path d="M2.93256192,5.43992098 C2.93256191,6.08119923 3.27467978,6.67376478 3.83004304,6.99440392 C4.38540629,7.31504305 5.06964205,7.31504305 5.62500531,6.99440392 C6.18036857,6.67376478 6.52248644,6.08119923 6.52248642,5.43992098 C6.52248642,4.4485907 5.71885445,3.64495873 4.72752417,3.64495873 C3.73619389,3.64495873 2.93256192,4.4485907 2.93256192,5.43992098 Z" id="路径" fill="#FFFFFF"></path>
                    <path d="M2.93256192,12.0440274 C2.93256191,12.6853056 3.27467978,13.2778712 3.83004304,13.5985103 C4.38540629,13.9191494 5.06964205,13.9191494 5.62500531,13.5985103 C6.18036857,13.2778712 6.52248644,12.6853056 6.52248642,12.0440274 C6.52248642,11.0526971 5.71885445,10.2490651 4.72752417,10.2490651 C3.73619389,10.2490651 2.93256192,11.0526971 2.93256192,12.0440274 Z" id="路径" fill="#FFFFFF"></path>
                    <path d="M2.93256192,18.6481338 C2.93256191,19.289412 3.27467978,19.8819776 3.83004304,20.2026167 C4.38540629,20.5232559 5.06964205,20.5232559 5.62500531,20.2026167 C6.18036857,19.8819776 6.52248644,19.289412 6.52248642,18.6481338 C6.52248642,17.6568035 5.71885445,16.8531715 4.72752417,16.8531715 C3.73619389,16.8531715 2.93256192,17.6568035 2.93256192,18.6481338 Z" id="路径" fill="#FFFFFF"></path>
                </g>
            </g>
        </g>
    </g>
</svg>