<?xml version="1.0" encoding="utf-8"?>
<!-- Generator: Adobe Illustrator 22.1.0, SVG Export Plug-In . SVG Version: 6.00 Build 0)  -->
<svg version="1.1" id="图层_1" xmlns="http://www.w3.org/2000/svg" xmlns:xlink="http://www.w3.org/1999/xlink" x="0px" y="0px"
	 viewBox="0 0 14.1 14" style="enable-background:new 0 0 14.1 14;" xml:space="preserve">
<style type="text/css">
	.st0{fill:#999999;}
</style>
<g>
	<path class="st0" d="M10.1,10.8H3.8c-0.3,0-0.5,0.2-0.5,0.5s0.2,0.5,0.5,0.5h6.4c0.3,0,0.5-0.2,0.5-0.5S10.4,10.8,10.1,10.8z"/>
	<path class="st0" d="M8.5,6C9,5.6,9.3,5,9.3,4.3C9.3,3,8.2,2,7,2S4.6,3,4.6,4.3C4.6,5,4.9,5.6,5.4,6C4.1,6.6,3.3,7.8,3.3,9.3
		c0,0.3,0.2,0.5,0.5,0.5h6.4c0.3,0,0.5-0.2,0.5-0.5C10.6,7.8,9.8,6.6,8.5,6z M7,3c0.7,0,1.3,0.6,1.3,1.3S7.7,5.6,7,5.6
		C6.2,5.6,5.6,5,5.6,4.3S6.2,3,7,3z M4.3,8.8C4.6,7.6,5.7,6.6,7,6.6s2.4,0.9,2.6,2.2H4.3z"/>
	<path class="st0" d="M13.7,1c-0.2-0.3-0.4-0.6-0.8-0.8C12.6,0.1,12.2,0,11.4,0H2.6C1.8,0,1.4,0.1,1,0.3C0.7,0.4,0.4,0.7,0.3,1
		C0.1,1.4,0,1.8,0,2.6v8.9c0,0.8,0.1,1.2,0.3,1.5s0.4,0.6,0.8,0.8C1.4,13.9,1.8,14,2.6,14h8.9c0.8,0,1.2-0.1,1.5-0.3
		s0.6-0.4,0.8-0.8c0.2-0.4,0.3-0.7,0.3-1.5V2.6C14,1.8,13.9,1.4,13.7,1z M13,11.4c0,0.7-0.1,0.9-0.1,1.1c-0.1,0.2-0.2,0.3-0.3,0.3
		c-0.2,0.1-0.3,0.1-1.1,0.1H2.6c-0.7,0-0.9-0.1-1.1-0.1c-0.2-0.1-0.3-0.2-0.3-0.3C1.1,12.3,1,12.2,1,11.4V2.6c0-0.7,0.1-0.9,0.1-1.1
		c0.1-0.2,0.2-0.3,0.3-0.3C1.7,1.1,1.8,1,2.6,1h8.9c0.7,0,0.9,0.1,1.1,0.1c0.2,0.1,0.3,0.2,0.3,0.3c0,0.3,0.1,0.4,0.1,1.2V11.4z"/>
</g>
</svg>
