<?xml version="1.0" encoding="utf-8"?>
<!-- Generator: Adobe Illustrator 22.1.0, SVG Export Plug-In . SVG Version: 6.00 Build 0)  -->
<svg version="1.1" id="图层_1" xmlns="http://www.w3.org/2000/svg" xmlns:xlink="http://www.w3.org/1999/xlink" x="0px" y="0px"
	 viewBox="0 0 43 43" style="enable-background:new 0 0 43 43;" xml:space="preserve">
<style type="text/css">
	.st0{fill:#666666;}
</style>
<title>分组 2</title>
<desc>Created with Sketch.</desc>
<g>
	<path class="st0" d="M21.5,0.5c-11.6,0-21,9.4-21,21c0,11.6,9.4,21,21,21c11.6,0,21-9.4,21-21C42.5,9.9,33.1,0.5,21.5,0.5z
		 M21.5,39.5c-9.9,0-18-8.1-18-18c0-9.9,8.1-18,18-18c9.9,0,18,8.1,18,18C39.5,31.4,31.4,39.5,21.5,39.5z"/>
	<path class="st0" d="M29.5,15.2L19,26.1l-5.5-4.8c-0.6-0.5-1.6-0.5-2.1,0.1c-0.5,0.6-0.5,1.6,0.1,2.1l6.6,5.7
		c0.3,0.2,0.6,0.4,1,0.4c0.4,0,0.8-0.2,1.1-0.5l11.5-11.9c0.6-0.6,0.6-1.5,0-2.1C31,14.6,30.1,14.6,29.5,15.2z"/>
</g>
</svg>
