<?xml version="1.0" encoding="utf-8"?>
<!-- Generator: Adobe Illustrator 22.1.0, SVG Export Plug-In . SVG Version: 6.00 Build 0)  -->
<svg version="1.1" id="图层_1" xmlns="http://www.w3.org/2000/svg" xmlns:xlink="http://www.w3.org/1999/xlink" x="0px" y="0px"
	 viewBox="0 0 16.5 16" style="enable-background:new 0 0 16.5 16;" xml:space="preserve">
<style type="text/css">
	.st0{fill:#999999;}
</style>
<title>分组</title>
<desc>Created with Sketch.</desc>
<path class="st0" d="M15.7,1.5L15.7,1.5c0-0.1,0-0.1,0-0.2c0,0,0,0,0-0.1c0,0,0,0,0-0.1l0,0c0,0,0,0-0.1-0.1c0,0,0,0-0.1-0.1l0,0
	l0,0C15.4,1,15.3,1,15.2,1l0,0h-0.1l-14,4.7C0.9,5.8,0.8,6,0.8,6.2s0.1,0.4,0.3,0.5L6,9.2L5.3,13c0,0.2,0.1,0.4,0.2,0.5
	s0.2,0.1,0.3,0.1c0.1,0,0.2,0,0.3-0.1l2-1.3l1.7,3.4c0.1,0.2,0.3,0.3,0.4,0.3l0,0c0.2,0,0.4-0.1,0.4-0.3l5-13.8
	C15.7,1.7,15.7,1.6,15.7,1.5C15.7,1.6,15.7,1.6,15.7,1.5z M13.3,2.7l-6.2,6L2.5,6.3L13.3,2.7z M6.5,12l0.3-2.3l0.8,1.5L6.5,12z
	 M10.2,14.1L7.8,9.4l6.3-6L10.2,14.1z"/>
<path class="st0" d="M15.7,1.5L15.7,1.5c0-0.1,0-0.1,0-0.2c0,0,0,0,0-0.1c0,0,0,0,0-0.1l0,0c0,0,0,0-0.1-0.1c0,0,0,0-0.1-0.1l0,0
	l0,0C15.4,1,15.3,1,15.2,1l0,0h-0.1l-14,4.7C0.9,5.8,0.8,6,0.8,6.2s0.1,0.4,0.3,0.5L6,9.2L5.3,13c0,0.2,0.1,0.4,0.2,0.5
	s0.2,0.1,0.3,0.1c0.1,0,0.2,0,0.3-0.1l2-1.3l1.7,3.4c0.1,0.2,0.3,0.3,0.4,0.3l0,0c0.2,0,0.4-0.1,0.4-0.3l5-13.8
	C15.7,1.7,15.7,1.6,15.7,1.5C15.7,1.6,15.7,1.6,15.7,1.5z M13.3,2.7l-6.2,6L2.5,6.3L13.3,2.7z M6.5,12l0.3-2.3l0.8,1.5L6.5,12z
	 M10.2,14.1L7.8,9.4l6.3-6L10.2,14.1z"/>
</svg>
