<?xml version="1.0" encoding="utf-8"?>
<!-- Generator: Adobe Illustrator 22.1.0, SVG Export Plug-In . SVG Version: 6.00 Build 0)  -->
<svg version="1.1" id="图层_1" xmlns="http://www.w3.org/2000/svg" xmlns:xlink="http://www.w3.org/1999/xlink" x="0px" y="0px"
	 viewBox="0 0 17 16.8" style="enable-background:new 0 0 17 16.8;" xml:space="preserve">
<style type="text/css">
	.st0{fill:url(#Stroke-13-Copy-9_1_);}
</style>
<title>Stroke 13 Copy 9</title>
<desc>Created with Sketch.</desc>
<g id="微信公众号">
	
		<linearGradient id="Stroke-13-Copy-9_1_" gradientUnits="userSpaceOnUse" x1="-269.9421" y1="403.4944" x2="-269.9422" y2="402.4944" gradientTransform="matrix(16 0 0 -16 4327.5688 6456.3281)">
		<stop  offset="0" style="stop-color:#FFEE99"/>
		<stop  offset="0.5141" style="stop-color:#FFE98A"/>
		<stop  offset="1" style="stop-color:#FFCD3E"/>
	</linearGradient>
	<path id="Stroke-13-Copy-9" class="st0" d="M8,0.8c0.2-0.5,0.7-0.5,0.9,0l1.7,3.7c0.2,0.5,0.9,1,1.5,1.1L16,6.2
		c0.6,0.1,0.7,0.5,0.3,0.9l-2.8,2.8c-0.4,0.4-0.7,1.2-0.6,1.8l0.7,4c0.1,0.6-0.2,0.8-0.8,0.5l-3.4-1.9c-0.5-0.3-1.3-0.3-1.9,0
		l-3.4,1.9c-0.5,0.3-0.9,0-0.8-0.5l0.7-4c0.1-0.6-0.2-1.4-0.6-1.8L0.7,7.1C0.3,6.7,0.5,6.3,1,6.2l3.8-0.6C5.4,5.5,6.1,5,6.3,4.5
		L8,0.8z"/>
</g>
</svg>
